<?xml version="1.0" standalone="no"?>
<!DOCTYPE svg PUBLIC "-//W3C//DTD SVG 20010904//EN"
 "http://www.w3.org/TR/2001/REC-SVG-20010904/DTD/svg10.dtd">
<svg version="1.0" xmlns="http://www.w3.org/2000/svg"
 width="2688.000000pt" height="2688.000000pt" viewBox="0 0 2688.000000 2688.000000"
 preserveAspectRatio="xMidYMid meet">
<metadata>
Created by potrace 1.14, written by Peter Selinger 2001-2017
</metadata>
<g transform="translate(0.000000,2688.000000) scale(0.100000,-0.100000)"
fill="#000000" stroke="none">
<path d="M13340 26824 c-253 -48 -436 -228 -488 -479 -8 -42 -7 -192 2 -240
25 -125 117 -271 221 -350 112 -85 240 -124 385 -120 142 4 257 48 364 137
116 97 178 202 212 359 11 51 5 177 -10 244 -71 301 -384 507 -686 449z"/>
<path d="M11965 26751 c-326 -90 -517 -392 -450 -712 49 -237 243 -428 472
-465 125 -20 302 6 386 56 18 11 43 25 56 30 14 6 59 46 100 88 90 91 141 187
168 312 9 47 8 153 -3 210 -47 247 -226 429 -478 487 -57 13 -194 9 -251 -6z"/>
<path d="M14726 26762 c-2 -1 -19 -4 -37 -6 -48 -5 -92 -17 -106 -29 -7 -5
-13 -7 -13 -3 0 3 -31 -10 -70 -30 -38 -21 -70 -41 -70 -46 0 -4 -5 -8 -10 -8
-25 0 -180 -182 -180 -210 0 -4 -8 -25 -17 -46 -19 -44 -19 -46 -30 -94 -10
-42 -10 -213 -1 -255 26 -117 105 -253 185 -318 13 -10 29 -24 36 -32 33 -32
237 -127 237 -110 0 2 15 -1 33 -6 33 -10 138 -12 194 -5 222 32 417 200 486
421 32 104 30 263 -6 363 -69 193 -200 322 -391 386 -62 21 -228 41 -240 28z"/>
<path d="M10660 26544 c-176 -36 -342 -165 -418 -326 -22 -45 -43 -101 -48
-123 -4 -22 -9 -47 -10 -55 -6 -27 -5 -144 1 -184 65 -390 478 -611 842 -450
180 79 317 255 348 449 7 45 7 171 0 195 -2 8 -6 26 -9 40 -17 100 -94 230
-185 312 -139 126 -335 179 -521 142z"/>
<path d="M16010 26549 c-19 -4 -48 -10 -65 -13 -72 -15 -195 -87 -263 -154
-125 -126 -178 -262 -175 -448 5 -240 160 -459 386 -543 76 -28 115 -35 207
-35 94 -1 139 6 215 35 297 110 459 444 363 749 -62 199 -253 368 -459 405
-52 10 -170 12 -209 4z"/>
<path d="M9390 26203 c-150 -26 -305 -123 -392 -243 -38 -53 -78 -128 -78
-149 0 -10 -3 -21 -7 -25 -4 -3 -8 -12 -9 -19 -1 -7 -7 -31 -12 -55 -14 -59
-8 -184 13 -262 56 -216 243 -393 460 -435 107 -21 261 -7 350 32 53 23 137
76 181 115 71 63 158 209 180 304 3 16 8 69 10 118 10 229 -108 439 -309 550
-34 19 -93 43 -132 53 -66 18 -198 27 -255 16z"/>
<path d="M17310 26203 c-52 -8 -157 -46 -210 -76 -80 -44 -188 -158 -231 -243
-123 -239 -77 -522 116 -710 332 -324 900 -156 1004 298 71 307 -109 616 -416
714 -45 15 -209 25 -263 17z"/>
<path d="M8169 25725 c-2 -1 -23 -5 -46 -8 -272 -38 -494 -298 -494 -582 -1
-91 5 -128 31 -205 44 -129 141 -249 262 -323 146 -88 299 -104 500 -53 10 3
49 21 86 41 189 99 307 283 319 496 17 292 -158 536 -442 616 -45 13 -208 27
-216 18z"/>
<path d="M18506 25709 c-209 -54 -388 -229 -432 -421 -2 -10 -7 -28 -10 -40
-3 -13 -8 -57 -11 -98 -21 -330 254 -622 587 -624 104 0 150 7 224 34 120 45
209 113 282 216 81 113 115 233 109 379 -10 251 -178 469 -420 545 -94 30
-235 34 -329 9z"/>
<path d="M6913 25105 c-34 -7 -71 -18 -82 -25 -12 -6 -21 -8 -21 -6 0 11 -97
-48 -145 -88 -153 -127 -228 -283 -228 -476 1 -281 217 -541 487 -586 104 -18
252 -5 326 28 257 113 393 316 385 575 -2 54 -5 105 -7 113 -2 8 -8 31 -12 50
-29 127 -172 296 -306 362 -41 20 -95 42 -120 48 -64 18 -205 20 -277 5z"/>
<path d="M19705 25100 c-90 -24 -152 -52 -212 -96 -102 -76 -180 -183 -216
-299 -24 -73 -28 -101 -28 -191 -1 -232 130 -441 336 -538 101 -48 130 -55
250 -59 104 -4 181 14 281 64 141 70 242 185 299 339 22 60 28 95 30 175 3
117 -13 194 -66 300 -63 130 -226 264 -364 300 -16 5 -37 10 -45 12 -51 14
-201 10 -265 -7z"/>
<path d="M5770 24374 c-30 -8 -88 -30 -129 -50 -102 -48 -214 -161 -264 -265
-77 -163 -87 -348 -24 -493 37 -88 67 -134 125 -195 316 -330 867 -202 1009
234 53 163 28 359 -63 503 -30 48 -112 135 -166 178 -29 23 -146 74 -198 88
-74 18 -222 19 -290 0z"/>
<path d="M20854 24375 c-56 -12 -162 -51 -174 -64 -3 -4 -17 -12 -31 -20 -64
-32 -183 -165 -216 -240 -92 -210 -77 -423 43 -602 86 -130 232 -229 379 -257
57 -11 220 -7 270 7 230 64 404 248 444 471 8 43 7 196 -1 230 -3 14 -9 39
-13 55 -23 92 -113 228 -197 297 -50 40 -179 106 -223 114 -16 2 -37 7 -45 10
-33 12 -179 11 -236 -1z"/>
<path d="M4775 23534 c-140 -25 -238 -75 -335 -174 -114 -116 -170 -253 -171
-421 0 -54 2 -103 5 -108 3 -5 8 -25 11 -44 4 -20 21 -66 39 -104 129 -265
422 -400 702 -323 213 58 365 210 424 422 29 104 23 256 -13 358 -29 82 -97
189 -152 238 -141 129 -330 187 -510 156z"/>
<path d="M21934 23539 c-127 -17 -250 -78 -342 -169 -52 -52 -118 -146 -122
-172 0 -4 -9 -28 -20 -52 -56 -132 -44 -323 30 -471 108 -218 321 -342 565
-330 198 10 369 107 475 269 65 101 94 200 94 331 1 167 -57 307 -176 426
-129 130 -319 193 -504 168z"/>
<path d="M13538 22735 c-2 -1 -41 -5 -88 -9 -140 -11 -314 -44 -442 -83 -61
-19 -55 -17 -91 -28 -15 -4 -26 -9 -24 -11 2 -3 42 5 88 15 86 21 96 22 209
40 67 11 220 23 300 24 53 1 256 -11 285 -17 11 -2 43 -7 70 -10 28 -4 57 -9
65 -11 8 -2 33 -6 55 -10 111 -16 443 -117 560 -170 268 -122 423 -206 620
-338 102 -68 319 -228 335 -246 4 -5 75 -66 165 -141 39 -33 372 -365 410
-410 140 -163 208 -244 251 -300 27 -36 51 -67 54 -70 21 -20 310 -435 310
-445 0 -2 28 -48 61 -102 34 -54 75 -123 92 -153 16 -30 49 -91 73 -135 107
-195 228 -454 324 -695 55 -138 164 -447 175 -493 2 -12 14 -53 25 -92 49
-165 117 -447 135 -555 3 -19 8 -48 12 -65 3 -16 7 -37 8 -45 13 -95 17 -117
20 -130 2 -8 9 -53 15 -100 6 -47 12 -98 14 -115 2 -16 7 -64 11 -105 3 -41 8
-91 10 -110 20 -150 20 -678 0 -855 -1 -16 -6 -64 -10 -105 -4 -41 -8 -88 -11
-105 -2 -16 -6 -52 -9 -80 -3 -27 -10 -72 -15 -100 -5 -27 -11 -66 -14 -85 -4
-29 -21 -120 -40 -215 -2 -11 -9 -38 -14 -60 -6 -22 -13 -51 -15 -65 -26 -150
-192 -646 -283 -849 -225 -498 -512 -948 -867 -1361 -49 -58 -195 -209 -323
-337 -206 -205 -230 -233 -211 -239 148 -45 355 -204 477 -366 l61 -81 192
194 c217 219 263 269 367 389 40 47 76 87 79 90 4 3 25 28 46 55 22 28 42 52
45 55 31 31 235 298 310 406 122 176 255 382 317 494 17 30 52 93 78 140 66
117 192 380 255 530 108 258 187 496 260 780 32 126 36 141 46 195 3 17 9 48
14 70 5 22 11 56 14 75 3 19 12 76 20 125 14 83 18 110 31 228 21 187 29 329
29 557 0 228 -11 462 -28 593 -3 26 -9 68 -12 95 -3 26 -7 58 -9 72 -2 14 -7
48 -11 75 -7 53 -7 56 -25 150 -6 33 -13 69 -15 80 -5 34 -14 78 -30 145 -9
36 -17 72 -19 80 -2 8 -13 53 -25 100 -12 47 -23 92 -25 100 -2 8 -4 15 -5 15
-1 0 -3 8 -5 18 -23 123 -195 593 -313 857 -96 215 -286 574 -386 730 -13 19
-51 80 -86 135 -34 55 -66 102 -69 105 -3 3 -33 46 -66 95 -33 50 -82 120
-110 156 -27 36 -61 81 -75 99 -68 92 -185 233 -300 365 -123 140 -365 385
-510 515 -52 47 -97 88 -100 91 -3 3 -52 43 -110 90 -226 181 -693 434 -1105
597 -196 78 -533 182 -592 184 -5 0 -15 4 -23 8 -8 4 -37 11 -64 14 -27 4 -53
9 -58 12 -4 3 -24 7 -45 9 -21 3 -60 9 -88 14 -27 6 -75 13 -105 16 -30 4 -71
9 -90 11 -41 5 -427 13 -432 9z"/>
<path d="M3850 22592 c-311 -44 -533 -295 -532 -600 1 -84 6 -112 33 -199 60
-184 242 -345 441 -390 40 -9 223 -8 261 1 205 49 373 207 443 416 23 69 26
260 5 335 -55 196 -230 368 -427 419 -60 16 -177 25 -224 18z"/>
<path d="M22909 22595 c-2 -1 -20 -5 -39 -8 -160 -22 -317 -124 -411 -267
-178 -271 -101 -645 169 -823 111 -73 205 -102 337 -101 148 0 247 32 362 117
387 287 286 898 -173 1053 -66 22 -232 42 -245 29z"/>
<path d="M13358 22535 c-2 -1 -37 -5 -78 -9 -41 -3 -86 -8 -100 -11 -14 -3
-38 -7 -55 -10 -159 -27 -375 -97 -530 -173 -123 -60 -408 -242 -379 -242 5 0
18 6 29 14 67 46 384 163 490 180 17 3 55 10 85 16 30 6 78 13 105 16 28 3 61
7 75 10 35 6 290 5 320 -1 14 -3 50 -8 80 -10 165 -16 427 -87 625 -170 188
-79 503 -264 646 -379 14 -12 43 -34 64 -51 127 -99 416 -374 536 -510 52 -60
249 -306 268 -335 8 -14 18 -27 22 -30 11 -8 233 -350 264 -405 15 -27 37 -68
50 -90 122 -216 247 -477 332 -695 13 -36 31 -79 38 -95 31 -70 145 -424 191
-595 8 -30 73 -309 78 -331 23 -127 42 -233 51 -294 5 -32 16 -99 20 -125 1
-8 6 -51 10 -94 4 -43 8 -86 10 -96 19 -98 28 -807 12 -965 -4 -38 -10 -95
-12 -125 -3 -30 -8 -71 -10 -90 -3 -19 -7 -53 -10 -75 -2 -22 -7 -49 -9 -61
-2 -12 -7 -45 -11 -75 -4 -30 -8 -56 -10 -59 -2 -3 -6 -27 -9 -54 -4 -27 -9
-52 -11 -55 -1 -3 -6 -23 -9 -44 -18 -116 -98 -411 -163 -607 -165 -494 -429
-1001 -740 -1419 -48 -64 -209 -268 -223 -281 -8 -8 -42 -46 -75 -85 -33 -38
-116 -128 -185 -198 -69 -71 -126 -132 -128 -138 -2 -5 4 -9 12 -9 57 0 277
-95 374 -162 94 -64 190 -160 229 -225 17 -29 29 -41 38 -35 20 11 216 195
324 303 113 113 184 189 266 284 33 39 62 72 65 75 3 3 24 28 45 55 22 28 42
52 45 55 7 6 96 122 127 165 324 451 559 907 722 1400 49 149 105 349 116 414
3 19 8 37 10 41 2 3 6 17 9 31 8 46 38 204 42 224 2 10 6 35 9 55 3 20 7 45 9
55 2 11 7 47 10 80 4 33 9 71 11 85 23 170 29 293 30 595 0 249 -4 367 -20
540 -6 66 -15 154 -20 185 -21 143 -22 152 -34 230 -6 36 -13 76 -16 90 -3 14
-9 50 -15 80 -6 30 -15 73 -20 95 -166 721 -374 1248 -749 1900 -83 144 -232
365 -370 548 -179 239 -293 369 -516 593 -245 246 -444 411 -700 581 -154 102
-230 146 -395 228 -279 139 -583 237 -840 271 -30 4 -66 9 -80 11 -30 5 -367
12 -372 8z"/>
<path d="M11310 22194 c-8 -2 -45 -6 -82 -9 -38 -4 -68 -10 -68 -14 0 -5 35
-11 78 -15 98 -9 221 -31 308 -57 38 -11 76 -22 84 -24 8 -2 24 -7 35 -10 15
-4 35 10 84 60 l63 65 -38 1 c-82 3 -450 5 -464 3z"/>
<path d="M17802 22097 c-202 -234 -456 -553 -511 -642 -13 -21 -6 -30 165
-202 98 -98 211 -214 250 -256 l71 -77 66 50 c178 135 513 280 752 326 11 2
31 6 45 9 147 29 263 40 440 40 228 0 306 -10 555 -69 74 -17 228 -77 330
-128 190 -95 312 -184 465 -337 177 -177 332 -410 420 -631 12 -30 28 -69 36
-85 34 -78 76 -257 100 -416 6 -47 7 -312 0 -346 -3 -15 -8 -50 -11 -77 -20
-166 -107 -424 -203 -606 -159 -301 -436 -628 -647 -764 -142 -92 -371 -185
-524 -213 -39 -7 -41 -11 -26 -58 7 -25 11 -45 9 -45 -2 0 3 -18 11 -40 8 -22
14 -41 13 -43 0 -1 11 -51 25 -112 14 -60 33 -145 42 -187 l16 -78 122 1 c173
1 278 -11 437 -47 569 -129 1020 -535 1229 -1107 29 -78 83 -275 96 -346 6
-32 22 -151 29 -211 16 -128 23 -431 12 -520 -2 -19 -7 -66 -11 -103 -3 -37
-8 -76 -10 -86 -2 -10 -6 -36 -10 -57 -16 -104 -39 -209 -61 -275 -8 -25 -16
-54 -19 -65 -15 -67 -102 -279 -163 -395 -208 -398 -505 -741 -900 -1040 -42
-32 -81 -62 -87 -66 -66 -55 -355 -236 -510 -320 -88 -48 -346 -176 -438 -217
-81 -36 -420 -170 -487 -191 -58 -19 -97 -41 -143 -84 -55 -50 -53 -58 11 -76
248 -72 469 -366 478 -635 5 -137 -36 -237 -138 -342 -70 -73 -143 -123 -252
-173 -62 -29 -180 -69 -188 -65 -2 1 -16 -3 -31 -9 -57 -22 -190 -39 -286 -36
-78 2 -185 27 -196 45 -12 19 16 80 54 118 23 23 62 47 97 60 73 27 80 29 339
67 75 11 179 49 219 80 46 35 92 104 103 155 10 50 7 207 -6 260 -7 25 -14 54
-16 65 -8 35 -58 128 -84 158 -54 61 -163 117 -226 117 -14 -1 -47 -38 -110
-127 -156 -218 -413 -537 -590 -729 -258 -283 -548 -569 -1045 -1034 -25 -23
-81 -77 -125 -119 -45 -42 -139 -130 -209 -196 -314 -293 -394 -391 -411 -506
-13 -80 -13 -100 0 -149 15 -58 46 -101 97 -137 32 -22 50 -26 101 -26 110 0
178 53 222 175 l23 63 28 -60 c33 -72 36 -159 8 -251 -9 -32 -18 -61 -18 -64
-1 -3 -15 -30 -33 -60 -56 -98 -151 -177 -258 -214 -69 -25 -214 -30 -290 -10
-246 63 -400 245 -451 534 -7 44 -7 224 1 270 11 68 38 186 57 255 10 39 21
77 23 85 2 8 25 89 50 180 52 186 129 492 141 560 4 25 8 47 9 50 1 3 5 25 9
50 5 25 10 52 11 61 2 9 6 40 10 69 4 29 8 62 11 73 26 139 26 523 -2 722 -19
135 -85 344 -155 491 -83 173 -174 299 -329 455 -266 269 -629 477 -1105 634
-116 39 -256 80 -303 90 -9 2 -44 11 -77 19 -33 9 -71 19 -85 21 -30 6 -51 10
-110 23 -40 9 -87 18 -155 27 -11 2 -33 6 -50 8 -16 3 -53 8 -80 12 -28 3 -64
8 -80 10 -182 25 -629 25 -765 0 -14 -2 -43 -7 -65 -10 -542 -75 -1036 -323
-1426 -714 -305 -307 -572 -737 -655 -1055 -20 -77 -38 -151 -40 -165 -3 -14
-9 -42 -14 -61 -7 -29 -23 -117 -45 -260 -3 -14 -7 -49 -10 -79 -3 -29 -7 -56
-9 -60 -9 -15 -21 -240 -21 -401 0 -157 9 -333 19 -400 3 -14 7 -44 10 -68 3
-24 11 -62 17 -85 6 -23 12 -49 14 -57 36 -182 161 -512 270 -714 208 -384
473 -696 750 -883 97 -66 214 -129 295 -158 l55 -21 90 24 c161 41 492 147
535 171 9 5 31 12 50 16 19 4 41 11 50 16 51 28 567 196 685 224 93 22 131 30
195 41 19 4 44 8 55 10 93 18 342 23 449 10 87 -11 233 -50 317 -85 156 -65
345 -208 437 -330 59 -79 138 -224 147 -271 2 -13 9 -37 14 -54 15 -47 21
-100 21 -184 1 -113 -19 -197 -72 -308 -17 -35 -28 -67 -25 -70 17 -17 396
-100 537 -118 19 -2 55 -7 80 -10 102 -14 130 -16 240 -23 209 -13 712 -6 809
12 9 1 48 6 86 10 39 4 84 9 100 11 17 1 48 6 70 9 22 3 58 8 80 11 22 2 51 7
65 10 14 3 41 8 60 10 19 2 58 9 85 14 28 6 61 12 75 15 38 7 242 49 285 59
26 6 313 80 385 100 30 8 100 29 155 46 55 17 105 33 110 34 6 1 54 17 107 35
54 18 99 31 100 30 2 -1 14 4 28 11 48 26 388 5 548 -34 12 -4 32 -8 44 -11
59 -13 161 -52 232 -88 162 -84 257 -216 258 -361 1 -111 -24 -183 -89 -264
-34 -41 -95 -80 -120 -76 -7 1 -17 2 -23 3 -5 0 -24 14 -42 30 -60 51 -94 63
-172 59 -88 -4 -164 -39 -234 -106 -160 -155 -170 -382 -25 -543 155 -172 481
-143 796 70 120 80 287 255 287 300 0 5 4 13 10 16 5 3 8 0 5 -7 -2 -7 -13
-42 -23 -78 -70 -232 -201 -387 -429 -506 -35 -18 -63 -30 -63 -27 0 3 -6 1
-12 -4 -7 -6 -31 -16 -53 -22 -22 -7 -47 -15 -55 -18 -22 -9 -28 -10 -105 -27
-96 -21 -120 -25 -190 -31 -33 -4 -73 -8 -90 -11 -36 -5 -365 -5 -415 1 -19 2
-73 6 -120 10 -47 3 -96 8 -110 10 -14 2 -47 6 -75 9 -27 4 -61 9 -75 11 -14
3 -41 7 -60 9 -19 2 -51 7 -70 10 -19 3 -48 8 -65 11 -16 3 -68 12 -115 21
-47 8 -107 19 -135 24 -27 4 -89 16 -137 25 -228 43 -387 7 -522 -116 -134
-123 -205 -322 -200 -565 1 -55 6 -116 11 -135 16 -60 4 -254 -21 -334 -1 -5
-8 -30 -15 -55 -29 -101 -157 -322 -216 -372 -20 -17 -20 -17 5 -19 14 -1 36
-3 50 -5 126 -18 315 -2 440 38 153 49 348 181 530 358 247 240 268 259 353
299 45 21 100 42 122 46 22 5 45 10 50 11 19 6 300 53 350 59 28 3 77 10 110
15 33 5 80 12 105 15 74 10 159 25 265 46 55 12 108 23 118 25 10 2 27 6 37 9
10 3 27 7 37 9 43 9 169 46 213 63 8 3 21 7 28 9 8 1 30 10 50 19 20 10 71 33
112 52 185 86 358 232 457 384 44 70 143 268 143 288 0 6 4 19 9 29 21 37 75
256 95 377 6 37 18 130 23 170 2 24 14 466 13 513 0 7 26 25 58 38 272 121
456 326 505 563 65 318 -57 620 -302 741 -183 91 -416 86 -554 -13 -90 -64
-138 -147 -138 -236 -1 -116 79 -191 217 -207 l58 -7 -17 26 c-34 53 -10 128
49 153 106 45 215 -70 169 -179 -30 -72 -147 -164 -230 -182 -11 -2 -31 -7
-45 -10 -33 -7 -178 -8 -210 -1 -14 3 -45 9 -70 12 -25 3 -52 7 -60 9 -15 3
-80 13 -130 20 -14 2 -54 9 -90 14 -36 6 -87 13 -115 16 -27 3 -61 8 -75 10
-14 2 -43 7 -65 10 -22 2 -58 7 -80 11 -22 3 -46 6 -52 7 -19 1 -16 15 5 21
14 5 270 147 387 215 231 136 764 508 924 646 14 12 71 60 126 105 55 46 116
98 135 115 19 18 62 56 95 86 91 81 460 453 545 548 41 46 80 89 86 95 8 9
224 274 262 321 4 6 28 37 52 70 25 33 47 62 50 65 24 22 335 480 353 520 4 8
26 44 48 80 137 215 375 680 494 965 37 88 73 174 80 190 7 17 23 59 36 95 12
36 25 70 29 75 10 14 142 419 184 560 79 273 168 651 210 898 3 15 9 53 15 85
6 31 13 75 16 97 3 23 7 50 9 61 2 12 7 45 11 74 4 29 8 61 10 70 2 9 6 41 9
71 3 30 8 64 10 76 3 12 7 50 10 85 4 34 8 81 11 103 34 307 49 636 49 1075 1
287 -8 607 -19 695 -2 17 -6 66 -10 110 -3 44 -8 94 -10 110 -2 17 -7 57 -11
90 -3 33 -7 67 -9 75 -1 8 -6 42 -10 75 -4 32 -9 68 -11 79 -2 11 -6 38 -9 61
-6 40 -21 127 -30 175 -3 13 -7 42 -11 64 -3 22 -7 43 -9 46 -2 3 -6 25 -10
50 -4 25 -8 47 -10 50 -2 3 -6 23 -9 45 -4 22 -9 48 -12 57 -3 9 -6 25 -8 35
-2 10 -12 47 -21 83 -9 36 -18 70 -19 75 -65 311 -294 989 -441 1310 -13 28
-33 73 -45 100 -74 166 -234 477 -347 675 -121 211 -336 539 -455 695 -52 67
-299 376 -314 391 -10 11 -53 58 -94 105 -206 231 -529 530 -790 730 -168 129
-541 379 -566 379 -3 0 -18 9 -33 20 -77 54 -429 222 -646 308 -245 97 -627
208 -815 237 -14 2 -50 9 -80 15 -30 5 -73 13 -95 15 -22 3 -47 7 -55 9 -8 3
-42 8 -75 12 -33 3 -70 8 -83 9 -17 3 -41 -18 -110 -98z m1303 -10101 c11 -2
40 -7 65 -11 71 -12 75 -12 173 -39 402 -110 699 -339 843 -652 78 -167 108
-311 107 -509 -2 -509 -367 -978 -1018 -1307 -114 -58 -341 -154 -385 -163
-59 -13 -206 -101 -250 -152 -138 -156 -194 -337 -185 -598 4 -117 10 -173 26
-244 5 -24 8 -45 6 -47 -5 -5 -84 88 -132 156 -22 30 -42 57 -45 60 -7 7 -21
31 -68 115 -233 415 -170 770 182 1016 87 61 201 120 386 199 80 33 159 68
177 76 17 7 34 14 37 14 15 0 227 107 286 144 81 51 89 57 168 131 126 119
200 253 238 435 10 48 11 333 1 395 -14 90 -48 249 -64 300 -72 229 -298 465
-622 652 l-76 44 65 -5 c36 -3 74 -7 85 -10z m265 -421 c154 -163 231 -355
214 -531 -33 -343 -273 -630 -620 -739 -28 -8 -62 -18 -75 -20 -13 -3 -49 -10
-79 -17 -31 -7 -125 -12 -215 -12 -188 0 -201 4 -292 93 -83 81 -159 237 -105
216 36 -14 60 -17 172 -20 212 -6 425 43 625 143 196 98 340 262 385 438 34
134 -11 368 -94 494 -50 77 -51 86 -1 40 26 -25 64 -63 85 -85z m257 -832 c-3
-5 -8 -30 -11 -58 -37 -275 -177 -450 -481 -603 -44 -22 -125 -59 -180 -82
-288 -121 -340 -144 -420 -185 -303 -155 -479 -358 -526 -606 -20 -108 -19
-150 6 -311 21 -140 127 -355 264 -538 31 -41 60 -80 64 -87 9 -15 -152 93
-248 165 -135 102 -263 222 -356 332 -44 52 -159 221 -159 234 0 3 -11 29 -24
58 -25 54 -50 135 -62 198 -10 58 -7 202 6 255 6 28 13 57 15 66 2 9 15 42 29
73 14 31 26 58 26 61 0 2 19 32 42 67 47 71 230 258 253 258 2 0 24 14 49 31
51 34 166 89 238 113 34 11 55 13 79 6 18 -5 48 -12 68 -15 20 -3 48 -8 61
-10 87 -19 307 -24 415 -11 51 7 87 14 198 41 29 7 120 42 174 66 178 83 349
249 435 423 18 36 36 66 41 66 4 0 6 -3 4 -7z"/>
<path d="M11101 22171 c-7 -5 1 -8 19 -8 16 0 30 3 30 7 0 9 -34 10 -49 1z"/>
<path d="M13039 22176 c-2 -2 -33 -7 -69 -11 -51 -5 -221 -37 -320 -60 -145
-33 -408 -120 -515 -169 -78 -36 -96 -51 -45 -36 17 5 31 9 33 8 3 0 96 14
121 18 143 26 398 21 606 -12 120 -19 405 -98 485 -134 11 -5 45 -19 75 -30
137 -53 371 -182 522 -289 44 -31 90 -63 102 -71 24 -16 103 -78 122 -95 6 -5
40 -35 75 -65 110 -96 231 -220 374 -385 44 -51 189 -246 244 -330 30 -44 61
-91 71 -105 41 -60 172 -296 232 -420 78 -160 180 -403 221 -530 67 -205 81
-251 113 -385 8 -33 16 -67 19 -75 6 -24 45 -212 50 -245 3 -16 8 -41 10 -55
10 -47 12 -65 19 -125 4 -33 9 -71 11 -85 4 -24 9 -79 20 -190 15 -164 21
-558 11 -670 -2 -19 -7 -79 -11 -133 -3 -54 -8 -105 -9 -115 -2 -9 -7 -44 -11
-77 -13 -113 -15 -125 -30 -212 -9 -49 -18 -99 -20 -113 -9 -58 -57 -264 -90
-385 -113 -409 -298 -857 -509 -1229 -31 -54 -56 -100 -56 -102 0 -11 -254
-406 -311 -484 -14 -19 -70 -96 -124 -170 -88 -120 -133 -177 -274 -350 -32
-40 -126 -149 -188 -220 -72 -83 -70 -79 -45 -78 29 1 124 -13 187 -27 153
-36 297 -98 424 -184 l75 -50 85 6 86 5 170 172 c174 175 226 231 305 326 25
30 47 57 50 60 63 59 440 596 440 627 0 4 6 14 14 22 53 62 257 480 351 721
72 183 185 548 200 645 1 11 8 38 13 60 6 22 14 54 16 70 3 17 8 41 11 55 3
14 7 39 10 55 3 17 10 53 15 80 5 28 12 70 15 95 3 25 8 56 10 70 2 14 6 50
10 80 3 30 8 71 10 90 31 242 36 748 9 990 -2 25 -7 69 -9 99 -7 81 -21 190
-30 242 -2 9 -6 40 -10 70 -6 48 -15 101 -29 165 -2 12 -7 37 -10 56 -13 85
-83 369 -123 508 -9 30 -18 60 -19 65 -14 61 -154 449 -201 555 -8 19 -21 49
-28 65 -46 108 -195 412 -235 476 -11 19 -23 41 -27 49 -10 22 -83 145 -128
215 -285 451 -609 820 -981 1117 -132 105 -410 288 -438 288 -7 0 -16 4 -21 9
-75 67 -496 217 -695 246 -19 3 -51 8 -70 11 -42 7 -355 15 -361 10z"/>
<path d="M10997 22063 c-1 -1 -36 -4 -77 -8 -171 -14 -344 -56 -515 -125 -100
-40 -100 -40 -45 -33 79 9 336 9 395 0 127 -20 266 -60 365 -104 111 -50 127
-58 227 -119 l101 -61 6 28 c8 40 73 182 118 258 36 60 45 81 33 81 -3 0 -41
9 -84 20 -43 11 -89 23 -102 25 -33 7 -93 19 -99 20 -32 8 -318 24 -323 18z"/>
<path d="M10588 21816 c-1 -2 -52 -6 -113 -9 -60 -3 -121 -8 -135 -11 -14 -3
-49 -11 -78 -17 -103 -21 -392 -132 -392 -150 0 -3 23 0 51 7 77 20 124 26
249 29 233 6 454 -63 672 -211 46 -31 85 -60 88 -63 3 -4 19 -17 35 -30 38
-29 106 -93 171 -162 324 -344 601 -917 734 -1514 16 -71 32 -150 35 -175 4
-25 11 -67 16 -95 5 -27 12 -72 15 -100 2 -27 7 -63 9 -80 21 -145 28 -549 12
-712 l-8 -81 98 -68 c94 -65 383 -280 393 -293 3 -4 21 -19 40 -35 19 -16 75
-65 123 -110 49 -44 92 -80 95 -79 8 3 8 2 18 198 10 211 5 542 -11 670 -2 17
-6 62 -10 100 -9 95 -21 194 -30 245 -2 14 -7 41 -9 60 -3 19 -8 46 -11 60 -2
13 -7 41 -10 61 -3 21 -12 68 -21 106 -8 37 -17 82 -20 98 -36 175 -133 490
-219 710 -50 126 -168 375 -231 485 -20 36 -42 74 -48 85 -31 56 -173 262
-227 330 -371 457 -767 705 -1189 741 -36 3 -70 7 -77 9 -6 2 -13 2 -15 1z"/>
<path d="M12755 21747 c224 -76 356 -137 495 -230 134 -90 184 -132 321 -267
132 -131 205 -218 336 -395 57 -77 107 -145 113 -152 5 -7 10 -15 10 -18 0 -3
23 -39 50 -81 28 -41 50 -77 50 -80 0 -2 11 -21 23 -42 93 -148 227 -419 322
-652 102 -249 217 -633 251 -830 2 -14 7 -36 10 -50 3 -13 7 -38 10 -55 2 -16
6 -41 9 -55 2 -13 7 -42 10 -65 3 -22 8 -58 11 -80 33 -230 38 -694 10 -865
-3 -14 -7 -47 -11 -75 -3 -27 -8 -57 -10 -65 -2 -8 -6 -35 -9 -60 -4 -25 -18
-94 -32 -155 -14 -60 -27 -118 -29 -127 -23 -103 -135 -417 -196 -546 -16 -35
-29 -65 -29 -68 0 -14 -175 -351 -235 -454 -105 -180 -175 -292 -185 -300 -4
-3 -13 -16 -20 -29 -17 -32 -146 -212 -235 -327 -38 -50 -81 -106 -95 -124
-14 -18 -32 -41 -40 -50 -8 -10 -33 -39 -55 -66 -38 -46 -174 -203 -185 -214
-3 -3 -27 -30 -54 -60 -138 -153 -309 -333 -583 -610 -515 -521 -805 -822
-777 -807 39 22 203 46 296 44 54 -1 99 0 100 4 6 12 124 95 173 121 80 42
218 82 355 102 47 7 258 8 290 1 14 -3 39 -7 55 -9 46 -6 115 -26 167 -48 l46
-20 78 27 c43 15 87 29 98 31 12 2 32 6 46 9 14 2 45 7 70 11 47 6 53 11 143
119 48 56 106 124 125 143 7 8 25 30 40 50 15 21 30 39 33 42 32 28 351 470
436 605 315 500 507 900 668 1390 55 166 139 472 150 545 2 14 11 61 19 105
22 108 54 315 61 395 3 36 8 79 10 95 23 179 23 678 0 885 -8 67 -14 125 -20
180 -3 30 -8 62 -10 70 -2 8 -7 35 -10 60 -3 25 -10 68 -15 95 -6 28 -12 61
-15 75 -80 428 -258 915 -475 1303 -268 480 -541 804 -950 1128 -233 185 -574
369 -840 455 -124 40 -139 44 -210 59 -10 2 -105 18 -130 21 -14 2 -63 6 -110
9 l-85 5 160 -53z"/>
<path d="M11799 21656 c-2 -2 -44 -6 -92 -10 -49 -3 -92 -8 -96 -11 -4 -2 -23
-7 -42 -10 -19 -3 -51 -11 -71 -17 l-38 -11 23 -16 c112 -79 299 -257 407
-391 25 -30 47 -57 50 -60 13 -12 98 -127 108 -147 7 -12 18 -28 26 -35 46
-46 259 -437 331 -608 15 -36 35 -81 43 -100 9 -19 17 -39 18 -45 2 -5 21 -59
44 -120 66 -176 167 -522 186 -635 3 -19 11 -62 19 -95 7 -33 16 -80 20 -105
3 -25 8 -52 10 -60 2 -8 6 -31 9 -50 3 -19 8 -51 11 -70 7 -49 21 -164 30
-255 27 -274 27 -805 0 -1023 -5 -35 -1 -42 66 -112 175 -183 434 -504 581
-720 39 -58 75 -106 80 -108 4 -2 8 -7 8 -12 0 -7 79 -130 84 -130 2 0 3 6 4
13 0 6 6 41 12 77 6 36 13 77 15 93 3 15 7 39 10 55 2 15 7 53 10 85 4 32 8
68 10 79 3 12 7 55 10 97 4 42 8 90 10 106 17 127 24 566 11 775 -10 172 -23
340 -31 390 -2 14 -6 50 -10 80 -3 30 -7 66 -10 80 -2 14 -7 41 -9 60 -11 85
-39 244 -63 360 -8 41 -16 82 -18 90 -2 8 -11 47 -20 85 -9 39 -18 79 -21 90
-2 11 -20 76 -39 145 -20 69 -37 132 -39 140 -2 8 -21 67 -42 130 -21 63 -38
117 -39 120 0 3 -6 19 -12 35 -7 17 -35 90 -63 164 -97 255 -203 469 -385 779
-30 51 -180 268 -195 282 -3 3 -18 23 -35 45 -123 168 -380 424 -445 444 -78
23 -240 48 -326 50 -49 1 -91 4 -95 6 -3 3 -8 3 -10 1z"/>
<path d="M10198 21576 c-1 -2 -39 -6 -83 -9 -115 -9 -149 -16 -249 -48 -85
-28 -264 -112 -309 -145 l-22 -16 22 7 c13 3 33 8 45 11 13 2 34 6 48 10 45
10 226 12 276 3 27 -5 62 -12 78 -15 16 -2 38 -10 50 -16 11 -6 23 -11 26 -10
11 4 73 -21 137 -55 214 -112 405 -303 569 -568 119 -192 242 -474 300 -685
21 -80 37 -149 70 -305 3 -11 7 -40 10 -65 3 -25 7 -52 9 -60 19 -70 26 -474
11 -615 -5 -44 -9 -90 -10 -102 -1 -18 29 -37 204 -126 174 -88 389 -207 452
-250 9 -6 20 -8 24 -4 17 17 8 609 -11 719 -2 12 -6 43 -9 68 -7 56 -13 96
-20 138 -3 17 -8 47 -12 65 -13 77 -38 190 -66 297 -188 724 -554 1317 -983
1592 -97 63 -161 94 -263 128 -86 29 -116 35 -217 46 -27 3 -55 7 -62 9 -6 2
-13 2 -15 1z"/>
<path d="M3020 21549 c-145 -14 -260 -69 -365 -174 -238 -238 -238 -612 0
-850 289 -290 784 -209 963 157 75 153 84 318 27 478 -72 198 -268 358 -471
386 -74 10 -84 10 -154 3z"/>
<path d="M23779 21556 c-2 -2 -26 -6 -54 -9 -204 -23 -398 -176 -479 -377 -25
-63 -44 -178 -40 -247 8 -147 71 -290 172 -392 120 -120 254 -177 423 -180
111 -2 185 15 284 65 153 77 277 232 309 386 3 13 8 34 11 48 8 35 8 147 1
197 -39 250 -266 474 -505 498 -31 3 -70 8 -87 10 -17 3 -32 3 -35 1z"/>
<path d="M12537 21476 c4 -8 29 -36 54 -63 136 -144 342 -425 454 -621 44 -76
114 -209 164 -308 54 -111 72 -148 107 -231 8 -18 21 -48 29 -65 77 -173 253
-717 290 -895 29 -143 38 -183 45 -213 5 -19 12 -51 15 -70 3 -19 8 -46 10
-60 20 -96 24 -120 29 -161 3 -19 7 -47 10 -64 2 -16 8 -54 11 -84 4 -30 8
-61 10 -70 1 -9 6 -47 9 -86 4 -38 9 -90 13 -114 14 -111 27 -407 27 -606 0
-167 -11 -455 -18 -505 -2 -14 -7 -57 -11 -97 -3 -39 -8 -82 -10 -95 -2 -13
-6 -48 -9 -78 -4 -30 -8 -66 -10 -80 -3 -14 -16 -91 -30 -172 -14 -81 -27
-151 -28 -155 -2 -4 13 -34 32 -66 19 -33 49 -83 65 -113 17 -30 35 -58 41
-64 21 -21 218 345 344 640 58 136 153 404 164 460 8 50 16 96 20 130 14 100
17 128 21 165 25 246 25 643 -1 845 -2 19 -6 60 -10 90 -3 30 -7 62 -9 70 -2
8 -7 31 -10 50 -7 42 -22 126 -30 160 -3 14 -8 39 -11 55 -2 17 -19 82 -35
145 -135 504 -382 1000 -707 1418 -118 152 -180 221 -346 387 -164 164 -281
264 -424 365 -111 78 -276 175 -265 156z"/>
<path d="M9728 21295 c-2 -2 -21 -6 -43 -8 -60 -7 -172 -42 -245 -78 -76 -36
-208 -123 -265 -173 l-40 -36 55 21 c143 54 303 59 470 14 178 -47 418 -242
535 -436 110 -182 187 -411 213 -638 9 -84 9 -354 -1 -446 -7 -66 -9 -82 -22
-145 -2 -14 -7 -38 -10 -55 -3 -16 -7 -41 -10 -55 -22 -98 -22 -110 1 -110 38
0 502 -155 634 -211 49 -21 67 -24 72 -15 28 49 30 528 3 667 -3 13 -7 44 -10
69 -7 58 -40 215 -66 310 -11 41 -21 82 -24 90 -8 32 -66 196 -75 212 -6 10
-10 23 -10 29 0 21 -139 297 -191 381 -195 312 -440 520 -694 588 -68 18 -266
36 -277 25z"/>
<path d="M18848 21135 c-2 -2 -34 -6 -73 -9 -38 -3 -80 -7 -91 -10 -12 -2 -37
-7 -55 -10 -19 -3 -45 -8 -59 -11 -14 -4 -38 -9 -55 -12 -147 -26 -439 -158
-587 -264 l-38 -26 22 -24 c11 -13 65 -79 119 -147 54 -68 101 -123 105 -123
9 0 111 258 118 296 2 17 5 37 5 46 1 14 10 12 59 -13 31 -17 94 -45 138 -64
89 -35 243 -112 286 -141 15 -10 45 -35 67 -56 22 -20 43 -37 46 -37 3 0 21
18 41 39 146 162 394 183 619 52 76 -44 128 -92 175 -161 45 -67 46 -68 64
-189 9 -54 -42 -183 -99 -252 -34 -41 -107 -95 -155 -113 -90 -36 -211 -14
-269 48 -65 69 -78 187 -31 281 54 107 136 118 204 27 42 -55 0 -122 -76 -122
-37 0 -57 -18 -52 -47 1 -7 2 -17 3 -23 2 -16 44 -33 78 -32 74 3 154 73 167
146 19 109 -105 246 -224 246 -181 0 -303 -271 -210 -465 73 -152 258 -223
429 -165 71 23 142 67 182 111 l26 28 19 -22 c123 -145 263 -430 328 -667 62
-228 78 -514 40 -750 -9 -58 -44 -182 -65 -229 -10 -24 -18 -46 -16 -48 8 -8
202 222 292 347 230 317 368 646 401 950 6 50 4 269 -2 310 -51 354 -222 646
-525 895 -101 84 -326 212 -464 265 -33 12 -69 26 -80 30 -61 24 -91 32 -205
59 -115 28 -167 37 -260 47 -46 5 -338 13 -342 9z"/>
<path d="M17291 20884 c112 -145 222 -300 314 -444 37 -58 75 -117 86 -132 10
-15 19 -30 19 -33 0 -3 23 -41 50 -85 28 -44 50 -82 50 -86 0 -3 18 -36 40
-74 104 -179 300 -596 381 -810 79 -212 177 -508 193 -583 3 -12 14 -56 26
-97 11 -41 22 -88 25 -105 3 -16 10 -46 16 -66 17 -67 68 -341 84 -452 3 -27
8 -59 11 -70 2 -12 6 -49 9 -82 3 -33 6 -69 9 -80 2 -11 7 -65 10 -120 4 -55
9 -127 12 -160 7 -77 7 -495 0 -560 -3 -27 -8 -93 -11 -145 -4 -52 -8 -106
-10 -120 -2 -14 -7 -50 -10 -80 -8 -75 -14 -124 -27 -200 -5 -36 -12 -74 -13
-85 -2 -11 -9 -45 -15 -75 -6 -30 -13 -67 -15 -82 -42 -237 -194 -741 -292
-968 -8 -19 -19 -44 -23 -55 -173 -419 -434 -881 -723 -1280 -81 -112 -251
-333 -292 -379 -6 -6 -33 -38 -60 -71 -28 -33 -54 -65 -60 -71 -5 -6 -44 -49
-85 -95 -137 -152 -293 -313 -478 -492 -67 -64 -70 -69 -61 -97 8 -22 27 -36
86 -64 214 -102 374 -284 447 -509 5 -15 15 -10 73 34 65 50 154 122 179 144
6 6 38 33 70 60 177 150 455 428 589 590 28 33 58 69 68 80 10 11 37 45 60 75
23 30 44 57 47 60 3 3 17 21 30 40 13 19 31 41 38 49 12 13 49 65 77 110 6 9
13 18 16 21 3 3 40 57 82 121 152 233 318 542 427 794 5 11 19 42 31 69 120
275 283 798 333 1071 7 36 14 71 21 105 9 42 54 322 60 370 3 25 8 65 11 90 3
25 7 61 9 80 2 19 7 67 10 105 4 39 8 90 10 115 23 260 23 760 0 970 -2 19 -6
75 -10 123 -3 48 -8 97 -10 109 -2 11 -7 46 -10 77 -4 31 -8 63 -10 71 -2 8
-7 42 -10 75 -4 33 -8 67 -10 75 -3 8 -7 29 -9 45 -45 271 -37 242 -171 600
-27 71 -122 299 -135 323 -5 9 -35 73 -66 142 -60 131 -156 319 -232 455 -24
44 -58 105 -75 135 -17 30 -57 97 -89 148 -32 51 -58 95 -58 96 0 9 -184 281
-191 284 -5 2 -9 8 -9 13 0 21 -324 448 -454 600 -17 19 -53 62 -81 94 -27 33
-117 128 -200 213 -82 84 -152 156 -155 160 -3 4 -14 14 -24 22 -11 8 23 -40
75 -106z"/>
<path d="M18301 20598 c-19 -51 -42 -120 -51 -154 l-18 -62 82 -109 c155 -204
155 -204 348 -573 31 -58 79 -150 108 -205 75 -142 355 -703 373 -747 9 -21
20 -38 24 -39 4 0 16 -2 26 -4 29 -5 60 32 52 63 -10 44 -343 709 -556 1112
-34 64 -39 80 -35 120 3 25 8 69 11 98 8 70 38 186 69 265 14 35 26 68 26 73
-1 13 -94 85 -170 131 -55 33 -238 123 -251 123 -2 0 -19 -42 -38 -92z"/>
<path d="M2265 20424 c-96 -15 -235 -75 -293 -127 -131 -119 -197 -232 -220
-382 -40 -253 94 -512 321 -623 102 -50 148 -62 245 -67 278 -13 524 166 608
442 28 93 24 248 -10 346 -44 130 -115 226 -221 303 -59 42 -160 87 -222 99
-42 8 -174 14 -208 9z"/>
<path d="M24413 20415 c-191 -41 -357 -181 -431 -360 -25 -63 -29 -75 -39
-140 -54 -357 221 -684 580 -688 152 -2 233 22 358 105 107 71 183 174 230
313 24 71 27 93 25 195 -2 103 -6 124 -35 197 -69 175 -198 299 -376 358 -94
32 -221 40 -312 20z"/>
<path d="M7599 19788 c-145 -102 -276 -254 -358 -416 -35 -69 -96 -245 -105
-302 -3 -19 -8 -46 -11 -60 -19 -93 -25 -330 -12 -469 6 -57 14 -83 37 -115
58 -85 167 -152 292 -181 66 -15 228 -15 303 0 259 52 438 179 500 355 16 46
22 266 10 365 -12 95 -58 232 -103 304 -78 128 -167 244 -285 375 -79 88 -184
196 -190 196 -2 0 -37 -23 -78 -52z"/>
<path d="M5839 19532 c-163 -209 -241 -432 -242 -697 -1 -80 11 -234 19 -247
2 -3 30 6 62 22 61 31 241 110 257 114 6 1 27 10 48 19 83 36 386 135 542 177
17 4 57 15 89 24 32 9 61 18 64 20 10 10 -84 134 -152 201 -115 115 -281 225
-597 398 l-46 25 -44 -56z"/>
<path d="M1640 19229 c-52 -10 -67 -13 -95 -23 -348 -124 -508 -514 -346 -841
49 -97 102 -161 184 -219 117 -83 250 -122 384 -113 102 7 137 14 198 40 168
70 286 198 346 373 19 56 23 90 24 179 0 61 -4 124 -8 141 -52 227 -238 409
-468 460 -43 9 -173 11 -219 3z"/>
<path d="M25024 19224 c-242 -52 -429 -247 -472 -494 -11 -59 -9 -179 4 -232
4 -18 8 -35 9 -38 15 -76 106 -216 184 -283 70 -61 176 -113 266 -132 62 -13
203 -14 245 -3 8 2 31 8 50 12 144 34 295 160 369 308 23 47 43 95 46 107 2
13 7 31 10 41 3 10 7 55 9 100 14 331 -245 613 -573 624 -47 2 -113 -2 -147
-10z"/>
<path d="M8677 19073 c-1 -1 -71 -3 -156 -4 l-153 -3 7 -50 c12 -86 15 -384 5
-412 l-11 -27 43 8 c24 4 50 8 58 10 8 2 40 6 70 10 30 4 66 9 80 11 153 26
703 25 905 -1 16 -2 55 -7 85 -10 98 -13 114 -15 170 -25 30 -5 73 -12 95 -16
22 -3 81 -15 130 -26 50 -11 98 -21 107 -23 10 -2 62 -16 115 -30 54 -15 105
-28 113 -30 8 -2 83 -26 165 -53 380 -126 746 -302 1075 -517 120 -78 377
-268 430 -317 14 -13 52 -45 85 -73 75 -63 331 -317 412 -410 224 -256 441
-564 603 -856 71 -127 216 -417 235 -469 1 -3 9 -22 19 -43 20 -46 24 -44 94
48 25 33 49 62 52 65 7 6 163 219 174 238 8 13 -44 108 -176 326 -72 117 -206
324 -218 336 -3 3 -29 41 -59 85 -93 137 -297 400 -406 524 -106 120 -143 159
-260 277 -297 297 -672 578 -1090 814 -288 163 -533 263 -1010 410 -95 29
-343 87 -540 125 -44 9 -222 37 -255 41 -19 2 -46 6 -60 8 -14 3 -56 8 -95 12
-38 3 -78 8 -89 10 -12 2 -61 6 -111 10 -49 3 -103 7 -120 10 -26 3 -138 8
-458 18 -32 1 -59 1 -60 -1z"/>
<path d="M6969 18876 c-2 -2 -23 -6 -47 -10 -24 -3 -47 -8 -51 -10 -4 -3 -19
-7 -33 -10 -115 -20 -806 -230 -843 -256 -5 -3 -32 -15 -60 -25 -27 -9 -63
-23 -80 -30 -16 -7 -55 -23 -85 -35 -246 -101 -506 -243 -667 -364 -1 -1 9
-30 23 -65 21 -52 26 -79 25 -148 -1 -47 -3 -89 -7 -94 -5 -9 29 -13 71 -10
11 1 83 33 160 70 171 83 184 88 264 104 67 14 167 7 226 -15 57 -21 167 -79
279 -145 193 -115 307 -176 346 -186 14 -4 26 -7 27 -7 2 -1 18 -7 36 -15 42
-17 115 -29 185 -29 48 0 53 -2 58 -25 3 -14 10 -41 15 -60 5 -19 7 -36 5 -38
-7 -8 -103 -19 -142 -17 -98 5 -261 68 -416 161 -241 145 -350 202 -426 222
-66 18 -180 15 -247 -7 -56 -19 -87 -31 -225 -94 -101 -47 -156 -58 -215 -45
-29 7 -31 6 -58 -62 -31 -77 -31 -101 5 -206 49 -144 124 -262 236 -369 28
-28 52 -58 51 -66 0 -8 -12 -24 -27 -36 -15 -11 -146 -110 -292 -220 -369
-278 -653 -501 -729 -570 l-64 -59 49 -28 c27 -15 72 -41 99 -57 211 -127 487
-245 625 -266 104 -17 122 -13 200 41 83 58 287 186 365 230 28 15 73 41 100
56 250 142 630 301 775 325 14 3 32 7 40 10 32 12 99 18 200 18 94 0 112 -3
166 -28 69 -31 112 -71 142 -131 28 -55 33 -78 23 -94 -14 -22 -36 -6 -50 37
-48 144 -221 199 -462 146 -94 -20 -82 -17 -169 -43 -216 -66 -557 -231 -875
-424 -11 -7 -87 -56 -169 -110 -131 -86 -155 -98 -195 -100 -162 -4 -420 94
-746 284 -177 103 -267 163 -556 368 -19 14 -19 13 -7 -15 55 -127 165 -258
328 -390 79 -63 194 -144 206 -144 4 0 15 -6 23 -14 30 -26 228 -124 344 -170
152 -60 344 -114 471 -132 24 -3 46 9 120 64 247 186 501 341 771 472 159 77
210 100 220 100 4 0 21 6 38 14 116 52 303 96 393 92 135 -6 163 -72 104 -246
-66 -197 -275 -552 -497 -845 -29 -37 -140 -183 -150 -195 -17 -22 -166 -203
-178 -216 -5 -6 -32 -37 -60 -69 -61 -71 -149 -166 -232 -252 -35 -36 -63 -67
-63 -70 0 -5 239 4 315 13 53 6 134 20 228 39 181 37 544 185 757 310 191 112
547 352 620 418 8 7 33 27 55 43 52 38 283 221 315 250 14 12 63 55 110 95 98
83 96 81 154 191 220 418 198 905 -65 1453 -113 236 -320 552 -491 753 -53 62
-159 182 -179 202 -9 9 -45 24 -80 33 -193 48 -363 184 -396 317 -12 50 -18
134 -18 277 0 147 -2 172 -16 159z m-1227 -1232 c10 -3 30 -7 45 -10 43 -8
157 -59 220 -100 32 -20 95 -74 141 -120 l83 -84 -42 -60 c-120 -171 -289
-281 -432 -282 -224 -2 -413 165 -478 422 l-21 81 27 36 c68 88 199 134 360
126 44 -2 88 -6 97 -9z"/>
<path d="M8848 18485 c-2 -2 -41 -6 -88 -9 -47 -4 -101 -8 -120 -11 -19 -3
-53 -7 -75 -10 -22 -3 -78 -12 -125 -20 -47 -9 -100 -19 -119 -22 -23 -4 -51
-24 -90 -63 -63 -63 -105 -95 -171 -131 -25 -13 -47 -25 -49 -26 -3 -2 56 -82
70 -93 6 -6 149 -203 164 -228 6 -9 18 -25 28 -36 9 -11 17 -25 17 -32 0 -7 4
-14 8 -16 5 -1 48 -68 96 -148 135 -226 265 -501 328 -695 21 -68 64 -235 72
-280 3 -16 7 -41 10 -55 20 -86 27 -348 13 -458 -29 -235 -131 -464 -288 -653
-22 -26 -39 -49 -39 -52 0 -2 52 -30 116 -62 177 -88 340 -201 452 -313 107
-107 112 -112 168 -198 111 -166 180 -374 201 -600 12 -139 5 -494 -12 -584
-2 -8 -6 -44 -9 -80 -4 -36 -8 -76 -11 -90 -2 -14 -9 -61 -15 -105 -6 -44 -13
-91 -15 -105 -2 -14 -7 -45 -10 -70 -3 -25 -8 -52 -10 -60 -2 -8 -6 -35 -9
-60 -3 -25 -8 -54 -10 -65 -6 -31 -16 -97 -20 -130 -3 -16 -7 -43 -10 -60 -2
-16 -7 -48 -11 -70 -3 -23 -7 -50 -9 -61 -2 -12 -7 -45 -11 -74 -4 -29 -8 -60
-10 -69 -3 -16 -14 -85 -20 -131 -2 -14 -7 -50 -10 -80 -3 -30 -8 -66 -10 -80
-2 -14 -7 -50 -10 -80 -3 -30 -8 -66 -10 -80 -2 -14 -6 -56 -10 -95 -3 -38 -8
-88 -11 -110 -2 -22 -6 -69 -9 -105 -2 -36 -8 -110 -12 -165 -9 -135 -10 -749
-1 -908 7 -119 25 -233 48 -317 5 -19 21 -80 34 -135 76 -308 237 -689 411
-970 63 -102 220 -327 248 -357 7 -7 23 -26 36 -43 112 -146 371 -402 556
-551 33 -26 62 -51 65 -54 11 -12 139 -110 225 -172 185 -132 375 -237 536
-296 69 -25 134 -44 146 -43 2 0 17 -5 35 -10 44 -13 200 -21 216 -10 9 5 -2
14 -35 26 -123 46 -335 163 -468 259 -203 145 -353 286 -539 506 -120 142
-261 379 -339 570 -11 25 -25 59 -32 75 -65 149 -151 458 -171 611 -2 23 -7
53 -9 65 -25 123 -25 760 0 910 2 13 7 51 11 84 3 33 8 67 9 75 1 8 6 42 10
75 5 33 9 62 10 65 1 3 5 25 9 50 5 25 10 54 13 65 2 11 7 34 9 50 3 17 23 98
44 182 90 353 199 617 411 991 18 31 43 77 57 102 115 205 372 581 551 805 60
75 252 307 261 315 3 3 23 25 45 50 197 223 320 353 682 720 538 545 626 637
794 821 80 88 199 224 226 260 11 13 4 36 -38 130 -96 216 -207 433 -306 601
-54 90 -182 289 -193 298 -3 3 -23 30 -43 60 -21 30 -51 73 -68 95 -17 22 -40
53 -52 69 -12 16 -26 34 -32 40 -5 6 -44 52 -85 101 -98 118 -370 391 -490
491 -52 43 -97 81 -100 84 -3 3 -25 21 -50 40 -25 19 -47 37 -50 40 -5 6 -66
49 -172 123 -192 134 -435 271 -660 373 -170 77 -444 184 -511 199 -12 2 -60
16 -107 31 -47 14 -89 27 -95 28 -5 2 -29 8 -51 14 -23 7 -62 16 -85 21 -24 5
-55 12 -69 15 -30 7 -77 17 -105 22 -11 1 -58 10 -105 18 -47 8 -105 18 -130
21 -25 3 -56 8 -70 10 -14 2 -52 7 -85 10 -33 4 -78 8 -100 11 -50 5 -552 13
-557 9z"/>
<path d="M7845 18139 c-44 -13 -82 -19 -160 -25 -38 -3 -72 -7 -74 -9 -2 -2 3
-10 10 -18 8 -7 34 -38 59 -67 25 -29 50 -58 55 -64 6 -6 47 -58 92 -116 199
-259 358 -524 458 -760 15 -36 31 -74 36 -85 38 -86 111 -347 123 -440 3 -22
8 -62 12 -90 9 -66 10 -244 2 -320 -22 -198 -90 -401 -188 -559 -12 -21 -19
-41 -14 -45 5 -5 36 -18 68 -30 l60 -22 34 38 c111 122 205 280 250 418 43
138 56 224 56 385 0 156 -11 249 -50 410 -71 298 -235 653 -462 1000 -76 116
-227 324 -269 370 -13 14 -23 28 -23 32 0 10 -37 9 -75 -3z"/>
<path d="M1237 17984 c-1 -1 -24 -4 -52 -7 -65 -8 -89 -13 -114 -27 -12 -6
-21 -8 -21 -5 0 10 -105 -48 -150 -83 -157 -124 -239 -285 -242 -480 -5 -257
169 -496 417 -575 279 -89 580 35 713 293 55 107 67 157 67 290 0 125 -7 153
-62 269 -68 142 -236 276 -385 307 -70 14 -164 24 -171 18z"/>
<path d="M25492 17965 c-182 -41 -345 -178 -420 -352 -88 -207 -50 -452 98
-627 132 -156 357 -240 547 -205 26 5 59 11 73 14 14 2 63 23 110 47 152 76
270 222 314 388 18 69 18 220 1 285 -27 104 -76 194 -152 280 -55 63 -148 120
-253 157 -74 26 -233 33 -318 13z"/>
<path d="M4976 17429 c-79 -122 -200 -259 -327 -371 -34 -29 -67 -58 -73 -64
-6 -5 -47 -38 -91 -73 -44 -34 -87 -68 -95 -74 -28 -22 -107 -82 -130 -97 -33
-22 -210 -152 -338 -248 l-113 -84 80 -59 c43 -32 136 -96 205 -143 l127 -85
32 32 c61 59 375 314 471 382 16 11 33 25 40 31 6 5 47 37 91 69 44 33 82 62
85 65 3 3 39 30 80 60 41 30 77 57 80 60 3 3 50 38 105 79 55 41 102 75 104
77 2 2 -29 38 -69 81 -77 83 -147 193 -181 283 -20 53 -23 63 -34 111 -2 12
-6 23 -7 25 -2 1 -21 -24 -42 -57z"/>
<path d="M19735 16918 c3 -12 7 -40 10 -63 7 -51 16 -115 21 -138 2 -10 6 -45
9 -78 4 -33 8 -70 11 -82 2 -12 6 -49 9 -82 3 -33 7 -76 10 -95 5 -37 13 -126
20 -227 3 -34 15 -86 29 -116 85 -193 80 -385 -16 -566 -26 -49 -30 -67 -30
-139 -1 -45 2 -85 4 -88 3 -2 30 33 60 78 186 280 198 505 41 821 -25 50 -31
72 -24 85 19 37 161 161 228 201 122 72 243 105 403 110 l96 2 19 -53 c10 -29
20 -60 22 -68 1 -8 5 -31 9 -50 14 -75 24 -208 27 -368 l2 -87 -81 -40 c-97
-48 -157 -90 -221 -153 -92 -90 -170 -243 -188 -368 -4 -27 -9 -58 -11 -69
-11 -55 -4 -270 11 -400 4 -27 8 -63 10 -80 2 -16 6 -43 9 -60 2 -16 8 -54 11
-84 4 -30 9 -63 11 -75 9 -47 18 -197 17 -281 -1 -141 -32 -235 -105 -327 -31
-39 -16 -82 29 -86 39 -4 81 38 123 123 46 94 63 176 64 305 0 105 -9 252 -19
290 -2 8 -7 40 -10 70 -3 30 -8 67 -10 81 -7 37 -14 96 -21 159 -3 30 -8 69
-10 85 -5 39 -5 253 0 285 2 14 7 48 10 76 22 188 146 350 330 434 110 49 155
55 263 32 46 -10 160 -57 173 -72 3 -3 25 -18 49 -35 53 -36 171 -149 171
-164 0 -6 -19 -11 -42 -11 -95 -1 -179 -70 -227 -185 -17 -39 -32 -83 -35 -98
-2 -15 -7 -30 -9 -34 -5 -8 -8 -25 -27 -148 -13 -89 -18 -124 -25 -190 -4 -33
-9 -78 -11 -100 -3 -22 -7 -58 -9 -81 -2 -22 -6 -54 -9 -70 -3 -16 -7 -49 -11
-74 -5 -43 -9 -66 -21 -120 -2 -14 -7 -40 -9 -59 -3 -18 -7 -36 -10 -40 -2 -4
-7 -23 -10 -42 -3 -19 -24 -88 -46 -154 -129 -386 -367 -623 -732 -729 -76
-22 -110 -29 -237 -51 -19 -3 -111 -8 -205 -11 -165 -4 -170 -5 -176 -27 -9
-34 -118 -315 -145 -375 -13 -29 -24 -54 -24 -57 0 -5 -87 -191 -145 -307 -23
-49 -38 -88 -33 -88 6 0 24 6 41 14 18 7 77 30 132 51 55 20 111 42 125 48 14
6 27 11 30 12 17 6 51 20 87 36 24 10 45 19 47 19 3 0 35 14 73 31 37 17 84
38 103 46 369 163 726 399 965 639 159 159 238 261 353 454 71 119 188 388
223 511 7 24 14 49 15 54 9 29 35 123 39 140 2 11 7 31 10 45 11 50 24 120 31
167 3 26 8 55 9 64 12 61 20 198 19 339 0 192 -6 265 -34 415 -111 595 -465
1026 -1000 1219 -94 34 -278 82 -349 91 -30 4 -63 9 -75 11 -12 2 -55 6 -96 9
-41 3 -85 8 -97 10 -18 4 -21 1 -18 -17z"/>
<path d="M19388 16609 c0 -101 -2 -206 -4 -234 -5 -100 -15 -231 -20 -280 -3
-27 -7 -68 -9 -90 -5 -53 -15 -138 -19 -161 -2 -11 -7 -44 -11 -74 -4 -30 -9
-64 -11 -75 -2 -11 -6 -38 -9 -60 -10 -76 -76 -391 -109 -515 -19 -69 -37
-138 -41 -155 -10 -35 -10 -35 -18 -55 -6 -14 -38 -123 -43 -145 -13 -59 -165
-459 -225 -592 -115 -257 -261 -537 -392 -748 -48 -78 -174 -270 -190 -290 -4
-5 -33 -46 -64 -90 -32 -44 -77 -105 -100 -135 -24 -30 -54 -68 -66 -84 -12
-15 -26 -33 -32 -40 -5 -6 -32 -38 -59 -71 -95 -118 -174 -203 -371 -400 -223
-223 -310 -301 -510 -460 -75 -60 -74 -57 -74 -128 l0 -66 54 -57 c182 -192
288 -464 287 -739 l0 -79 137 140 c75 77 165 173 201 213 36 41 74 83 85 95
51 52 290 344 386 471 134 177 370 528 450 670 12 22 48 85 79 140 88 158 280
553 280 579 0 7 4 16 8 21 5 6 24 48 41 95 18 47 37 94 41 105 8 19 21 54 25
65 1 3 4 12 8 20 40 98 150 460 186 610 31 132 51 221 61 270 5 25 11 55 14
66 2 12 7 37 10 55 6 35 12 67 21 117 5 25 7 39 21 137 3 22 7 47 9 55 2 8 7
40 10 70 4 30 8 66 10 80 2 14 6 61 10 105 4 44 8 94 10 111 22 189 32 644 21
889 -9 182 -15 262 -32 440 -9 95 -22 208 -29 245 -2 14 -7 50 -11 80 -3 30
-8 57 -10 59 -2 2 -5 -79 -6 -180z"/>
<path d="M813 16678 c-223 -33 -414 -204 -481 -426 -18 -60 -21 -93 -18 -180
3 -104 10 -154 24 -176 3 -6 7 -16 8 -22 4 -26 58 -122 92 -164 53 -66 110
-115 174 -150 111 -60 175 -75 313 -74 221 1 420 124 516 319 56 115 68 171
64 300 -4 169 -55 286 -175 405 -135 135 -326 197 -517 168z"/>
<path d="M25910 16683 c-300 -36 -528 -284 -533 -578 -2 -92 5 -140 28 -210
57 -170 189 -310 352 -374 67 -26 104 -33 207 -36 172 -5 313 52 436 175 120
119 174 251 174 420 1 180 -57 315 -187 442 -120 116 -312 181 -477 161z"/>
<path d="M6578 16135 c-3 -3 -14 -7 -24 -9 -25 -5 -180 -60 -218 -78 -99 -45
-283 -138 -365 -186 -160 -91 -506 -330 -525 -361 -12 -19 168 -111 260 -132
l49 -11 200 198 c301 299 468 449 634 571 2 2 2 5 -1 8 -2 3 -7 3 -10 0z"/>
<path d="M6697 15888 c-24 -24 -107 -101 -183 -173 -345 -324 -462 -459 -553
-642 -44 -87 -75 -176 -96 -272 l-13 -65 74 78 c66 70 137 148 204 226 12 14
34 39 49 55 48 53 225 268 276 335 27 36 52 67 55 70 8 7 92 126 138 197 49
74 90 159 96 201 2 17 3 32 1 32 -3 0 -24 -19 -48 -42z"/>
<path d="M659 15365 c-2 -2 -24 -6 -49 -9 -112 -13 -229 -70 -318 -154 -64
-61 -134 -162 -147 -212 0 -3 -10 -30 -20 -60 -24 -66 -27 -260 -6 -325 97
-306 362 -483 661 -441 83 11 102 17 166 46 255 116 399 392 347 667 -43 227
-211 410 -430 469 -53 14 -196 27 -204 19z"/>
<path d="M26148 15365 c-2 -2 -22 -5 -46 -9 -258 -35 -455 -224 -508 -486 -7
-39 -7 -162 1 -200 2 -14 8 -38 11 -55 10 -49 54 -146 87 -194 93 -135 233
-224 402 -256 49 -9 167 -7 203 4 17 5 32 8 32 6 0 -7 123 45 169 71 25 15 78
59 116 98 225 229 230 589 11 824 -92 98 -236 174 -353 187 -87 9 -122 12
-125 10z"/>
<path d="M5649 15031 c-8 -17 -17 -31 -21 -31 -5 0 -8 -5 -8 -10 0 -22 -90
-140 -165 -216 -152 -153 -332 -273 -763 -505 -370 -200 -511 -314 -604 -487
-60 -114 -82 -207 -82 -357 -1 -194 49 -375 160 -583 54 -100 43 -83 192 -313
176 -270 210 -340 216 -438 4 -62 -17 -112 -72 -172 -23 -24 -54 -69 -69 -99
-24 -47 -28 -67 -28 -135 1 -66 5 -89 27 -131 45 -89 104 -161 234 -287 45
-42 50 -45 50 -25 2 85 38 160 109 231 58 57 141 109 338 210 125 65 244 139
283 176 130 124 183 246 184 425 1 39 -1 80 -4 91 -14 64 -22 86 -49 140 -16
33 -59 100 -94 149 -127 173 -145 262 -81 396 19 39 32 74 29 79 -10 14 -135
77 -208 104 -77 29 -174 57 -283 81 -247 55 -315 111 -315 261 0 55 5 81 25
119 30 59 141 175 305 317 284 247 449 447 578 700 53 104 142 328 133 336 -2
2 -10 -10 -17 -26z"/>
<path d="M557 14014 c-1 -1 -16 -4 -34 -7 -47 -7 -133 -37 -168 -58 -16 -11
-40 -23 -51 -28 -39 -17 -148 -128 -183 -185 -60 -101 -83 -179 -87 -296 -7
-220 85 -403 264 -523 138 -94 300 -121 487 -82 63 13 195 86 254 141 130 120
193 265 193 439 0 190 -74 343 -228 473 -51 44 -186 107 -249 118 -45 7 -192
13 -198 8z"/>
<path d="M26170 14017 c-3 -3 -21 -7 -41 -10 -96 -12 -232 -89 -314 -178 -170
-181 -207 -447 -96 -675 69 -140 172 -235 323 -295 63 -25 87 -29 189 -36 203
-13 407 91 525 267 124 184 131 445 18 637 -36 62 -147 173 -205 207 -101 58
-168 77 -284 83 -60 3 -112 3 -115 0z"/>
<path d="M12989 13609 c-139 -14 -265 -57 -321 -111 -13 -13 -39 -61 -57 -108
-19 -47 -35 -86 -36 -88 -1 -1 -51 16 -111 39 -93 36 -120 42 -185 41 -89 0
-170 -21 -259 -68 -107 -57 -181 -136 -250 -267 l-25 -47 -165 0 -165 0 -25
-38 c-14 -20 -28 -41 -33 -47 -72 -95 -203 -291 -293 -440 -69 -113 -194 -339
-194 -349 0 -4 -11 -22 -24 -39 -23 -30 -156 -281 -156 -294 0 -3 32 43 72
103 39 59 108 153 152 209 83 103 285 312 369 381 26 21 60 49 75 62 39 33 37
31 162 114 295 196 619 324 980 388 98 17 114 19 180 25 35 3 78 8 94 11 94
16 565 2 696 -21 14 -3 45 -7 70 -10 25 -3 56 -7 70 -10 14 -3 54 -10 89 -16
36 -5 67 -12 70 -13 3 -2 22 -7 41 -10 43 -7 58 -10 140 -31 36 -8 73 -18 82
-20 50 -11 176 -47 193 -55 11 -5 34 -12 50 -16 17 -4 32 -8 35 -9 23 -5 91
-29 117 -41 17 -8 35 -14 40 -14 9 0 110 -38 158 -60 11 -5 63 -27 115 -50
166 -73 389 -201 502 -289 25 -20 61 -47 80 -61 35 -26 263 -252 288 -285 90
-119 127 -176 197 -305 66 -120 138 -340 168 -513 3 -15 7 -39 10 -54 25 -145
25 -541 0 -683 -2 -14 -6 -45 -9 -70 -14 -114 -50 -295 -98 -485 -22 -88 -41
-167 -43 -175 -2 -8 -4 -15 -5 -15 -1 0 -3 -9 -5 -19 -4 -21 -89 -326 -110
-396 -51 -166 -71 -365 -50 -503 24 -156 73 -256 171 -354 212 -210 555 -189
715 43 16 24 29 45 29 48 0 4 -17 -5 -39 -18 -21 -14 -64 -32 -95 -41 -182
-53 -370 24 -479 197 -60 95 -77 152 -82 273 -6 169 52 321 192 506 68 90 106
132 320 349 111 113 211 216 223 230 12 14 29 34 38 45 9 11 44 52 76 90 104
123 186 268 225 395 23 76 38 191 34 265 -11 256 -127 459 -335 588 l-76 47
34 81 c31 71 35 88 33 157 -7 243 -156 397 -455 467 l-70 17 -1 89 c-1 81 -4
95 -38 164 -63 126 -197 251 -338 315 -84 37 -137 47 -269 49 -62 1 -114 4
-117 7 -2 2 -5 43 -6 91 -1 49 -3 96 -4 105 -1 22 -93 116 -151 154 -67 45
-175 91 -265 114 -97 24 -244 22 -315 -5 -79 -29 -78 -30 -160 49 -61 58 -98
83 -191 129 -185 91 -346 121 -499 91 -87 -16 -128 -34 -206 -88 -107 -75 -95
-75 -169 -3 -75 73 -127 95 -240 103 -38 3 -74 6 -80 8 -5 1 -44 -1 -86 -5z"/>
<path d="M605 12674 c-430 -74 -646 -554 -411 -917 253 -393 847 -360 1046 58
47 99 64 190 57 304 -22 355 -345 615 -692 555z"/>
<path d="M26150 12683 c-188 -13 -365 -115 -466 -267 -31 -48 -88 -166 -80
-166 2 0 -2 -20 -9 -44 -29 -94 -11 -265 40 -381 59 -136 196 -259 346 -312
92 -32 261 -40 349 -17 169 44 314 162 388 314 23 47 44 99 47 115 3 17 8 42
11 57 3 15 6 53 8 84 2 51 0 77 -18 169 -19 97 -109 238 -200 311 -116 94
-274 146 -416 137z"/>
<path d="M819 11349 c-248 -35 -449 -232 -505 -494 -7 -30 -6 -155 2 -200 44
-281 284 -491 569 -501 263 -9 499 150 590 396 22 60 28 96 31 181 6 182 -50
325 -175 449 -135 133 -324 195 -512 169z"/>
<path d="M25862 11349 c-146 -29 -283 -115 -369 -232 -36 -49 -81 -135 -90
-171 -41 -169 -37 -283 13 -408 95 -232 314 -381 564 -381 278 -1 527 201 586
474 11 55 11 198 -2 257 -42 203 -212 386 -414 447 -64 19 -225 27 -288 14z"/>
<path d="M7905 10929 c-141 -19 -182 -32 -245 -76 -144 -100 -223 -238 -224
-387 0 -39 4 -91 8 -115 30 -178 170 -333 346 -384 63 -19 184 -34 232 -31
212 16 308 49 399 135 167 158 242 429 177 639 -13 40 -21 47 -104 95 -178
102 -404 150 -589 124z"/>
<path d="M7279 10676 c-85 -58 -176 -135 -241 -204 -35 -38 -71 -68 -79 -67
-8 2 -45 6 -84 9 -38 4 -81 9 -95 10 -14 2 -56 6 -95 10 -38 4 -88 9 -110 11
-418 43 -1066 54 -1275 21 -14 -2 -52 -7 -85 -11 -32 -4 -68 -9 -80 -11 -11
-2 -36 -7 -55 -10 -53 -8 -223 -53 -242 -64 -10 -6 -22 -10 -27 -10 -17 0
-135 -59 -176 -88 -31 -22 -47 -45 -77 -112 -39 -90 -81 -226 -93 -300 -4 -25
-9 -56 -11 -70 -9 -54 -5 -228 6 -288 50 -275 210 -495 500 -684 122 -80 354
-184 552 -247 82 -26 86 -26 63 -1 -22 25 -28 88 -10 116 12 19 9 21 -74 48
-108 34 -270 111 -349 164 -67 46 -173 146 -219 207 -174 232 -219 583 -99
773 92 147 259 209 546 206 113 -1 234 -8 345 -19 22 -2 72 -7 110 -10 39 -4
82 -8 98 -10 203 -25 512 -25 672 0 187 29 357 128 459 268 23 32 33 37 66 37
31 0 43 -6 58 -27 25 -36 22 -63 -12 -111 -132 -191 -357 -303 -676 -337 -51
-5 -310 -6 -385 0 -27 2 -86 6 -130 9 -74 5 -143 12 -220 21 -161 20 -483 27
-579 13 -133 -20 -215 -75 -246 -168 -25 -72 -20 -244 8 -341 43 -146 155
-299 284 -387 40 -27 165 -90 243 -122 65 -27 213 -64 300 -76 28 -3 52 -7 55
-9 3 -2 62 -6 132 -10 l127 -7 27 29 c60 64 128 179 150 253 12 42 15 77 11
198 -1 66 99 118 288 149 59 10 191 56 260 90 91 46 176 114 264 211 38 43 78
79 88 80 36 1 73 -20 80 -47 12 -43 4 -63 -50 -126 -161 -189 -333 -291 -592
-350 -196 -45 -180 -36 -179 -96 3 -123 -58 -276 -166 -413 -8 -11 -41 -46
-72 -79 -32 -32 -58 -64 -58 -71 0 -7 -9 -25 -20 -39 l-21 -26 23 -6 c13 -2
50 -7 83 -11 33 -3 74 -7 90 -9 17 -1 53 -5 80 -9 287 -35 478 -19 605 51 118
65 198 189 320 498 58 145 121 278 150 313 l19 23 43 -29 c113 -77 210 -106
358 -106 136 0 201 17 288 75 49 33 52 34 52 17 0 -25 127 -265 190 -358 103
-153 146 -206 279 -344 371 -385 880 -653 1506 -793 61 -13 121 -26 135 -28
36 -5 91 -15 120 -20 14 -3 43 -7 65 -10 21 -2 73 -9 115 -14 159 -20 321 -31
557 -35 135 -3 171 4 101 19 -48 11 -219 82 -338 141 -356 175 -711 450 -1005
780 -71 80 -97 110 -162 192 -12 15 -33 24 -63 28 -25 2 -66 9 -91 15 -26 6
-53 11 -60 13 -30 5 -135 40 -143 48 -6 4 -18 8 -27 8 -55 0 -508 269 -643
382 -188 157 -347 311 -408 394 l-29 41 -57 -13 c-252 -59 -497 -26 -673 89
-184 120 -291 322 -290 547 0 41 2 84 5 95 2 11 9 42 15 69 7 27 16 57 22 68
16 30 8 29 -42 -6z"/>
<path d="M8719 10571 c-2 -171 -55 -349 -136 -460 -35 -46 -145 -157 -163
-163 -12 -4 -9 -14 14 -49 36 -55 208 -231 299 -307 38 -31 81 -67 95 -80 29
-24 205 -151 233 -167 10 -5 53 -31 96 -57 104 -63 254 -133 360 -169 101 -34
112 -35 91 -11 -17 18 -228 369 -228 378 0 3 -25 58 -56 122 -30 64 -59 126
-63 137 -33 80 -63 156 -67 170 -2 6 -22 64 -44 130 -23 66 -59 196 -81 290
-22 93 -43 181 -47 195 -8 26 -41 42 -112 54 -19 4 -70 15 -112 25 l-78 18 -1
-56z"/>
<path d="M1180 10058 c-93 -15 -107 -19 -190 -60 -160 -77 -285 -236 -323
-409 -17 -77 -15 -204 4 -269 7 -25 13 -48 13 -52 1 -3 4 -10 9 -14 4 -4 7
-13 7 -21 0 -30 89 -159 148 -214 64 -60 194 -132 262 -145 19 -3 46 -8 60
-11 34 -6 153 -5 191 2 60 11 167 53 222 88 259 166 350 506 209 782 -113 223
-376 362 -612 323z"/>
<path d="M25618 10065 c-2 -1 -32 -5 -68 -8 -158 -15 -316 -111 -414 -251 -42
-60 -80 -139 -90 -187 -3 -13 -8 -35 -11 -49 -11 -43 -8 -188 5 -243 7 -28 30
-89 51 -134 44 -92 141 -200 220 -247 46 -26 169 -78 169 -71 0 2 15 -1 33 -6
81 -24 228 -9 337 33 131 51 244 152 309 277 50 97 62 142 67 261 12 327 -224
591 -558 623 -26 3 -48 4 -50 2z"/>
<path d="M25118 8815 c-1 -1 -21 -5 -43 -8 -88 -13 -113 -20 -190 -57 -98 -47
-179 -118 -240 -210 -99 -149 -122 -287 -81 -496 2 -12 19 -52 36 -90 100
-215 305 -346 540 -345 182 1 312 53 435 176 123 124 183 285 172 460 -12 184
-84 320 -231 443 -71 58 -205 110 -306 118 -36 3 -70 7 -77 9 -6 2 -13 2 -15
0z"/>
<path d="M1645 8804 c-163 -38 -235 -75 -331 -171 -244 -242 -237 -633 16
-866 72 -68 127 -99 225 -132 115 -39 253 -39 370 0 139 47 269 153 338 275
146 262 73 600 -167 777 -74 55 -150 91 -228 109 -33 8 -199 14 -223 8z"/>
<path d="M13579 8206 c-2 -2 -33 -7 -69 -10 -121 -13 -444 -91 -435 -106 2 -4
26 -15 52 -25 226 -87 426 -302 512 -553 36 -105 44 -154 45 -277 0 -168 -31
-310 -103 -469 -30 -66 -98 -172 -138 -216 -12 -13 -21 -26 -19 -27 4 -5 276
70 361 98 201 68 406 167 547 265 113 79 244 213 288 294 90 167 92 325 8 495
-52 106 -169 242 -274 320 -21 17 -41 33 -44 36 -3 4 -33 23 -67 43 -93 55
-186 88 -339 121 -34 8 -318 18 -325 11z"/>
<path d="M12719 7975 c-68 -23 -207 -72 -309 -109 -102 -37 -192 -69 -200 -71
-8 -2 -16 -4 -17 -5 -2 -2 -6 -3 -10 -5 -5 -1 -15 -4 -23 -8 -8 -3 -45 -15
-83 -27 -69 -22 -77 -33 -30 -45 37 -9 130 -71 179 -120 100 -99 169 -244 191
-400 10 -65 9 -244 0 -316 -23 -172 -96 -342 -192 -445 -30 -32 -55 -59 -55
-60 0 -3 311 5 380 10 119 9 191 16 220 21 14 2 49 7 79 10 30 4 63 9 75 11
12 2 41 7 66 10 142 18 253 68 340 154 163 161 252 402 246 665 -3 145 -31
247 -102 372 -51 89 -156 206 -241 266 -93 67 -228 118 -344 130 -35 3 -73 -5
-170 -38z"/>
<path d="M11769 7658 c-222 -46 -314 -61 -469 -75 -36 -3 -80 -6 -97 -6 -18 1
-33 -3 -33 -8 0 -5 4 -9 9 -9 28 0 134 -141 165 -220 27 -67 30 -86 28 -185
-3 -205 -45 -372 -129 -517 -18 -31 -33 -59 -33 -61 0 -14 147 -74 270 -111
194 -58 293 -76 407 -73 96 3 114 6 163 31 120 62 221 217 254 393 15 74 18
108 21 188 8 263 -87 480 -255 582 -85 52 -230 86 -301 71z"/>
<path d="M10355 7643 c-51 -9 -165 -48 -210 -71 -98 -49 -202 -129 -337 -258
-83 -80 -102 -137 -102 -309 -1 -362 195 -649 496 -728 67 -17 205 -13 280 9
9 3 25 7 36 9 94 18 402 146 402 167 0 4 19 17 42 29 24 12 71 50 105 85 84
85 145 210 179 369 12 53 18 129 18 225 1 100 -1 108 -32 165 -77 143 -211
239 -362 260 -25 3 -97 16 -160 29 -106 21 -291 31 -355 19z"/>
<path d="M2308 7615 c-2 -1 -26 -5 -54 -9 -115 -13 -227 -70 -319 -161 -129
-126 -187 -258 -188 -420 0 -92 2 -107 23 -185 28 -107 123 -242 220 -313 110
-81 233 -117 380 -112 89 2 117 8 188 35 175 68 303 201 364 379 30 89 32 268
4 351 -68 200 -210 346 -396 404 -64 21 -211 41 -222 31z"/>
<path d="M24440 7608 c-156 -24 -298 -115 -394 -252 -37 -54 -53 -86 -86 -172
-10 -25 -23 -122 -24 -179 -1 -34 8 -89 29 -180 14 -61 87 -176 155 -246 62
-63 194 -134 287 -155 127 -27 280 -8 399 51 87 42 196 141 243 219 63 106 84
178 85 301 1 108 -2 135 -23 205 -84 273 -379 453 -671 408z"/>
<path d="M9588 7117 c-7 -7 -51 -40 -97 -72 -114 -80 -238 -132 -381 -160 -59
-12 -275 -19 -550 -18 -860 4 -814 5 -1035 -23 -22 -3 -67 -12 -100 -20 -33
-9 -69 -17 -80 -19 -33 -7 -149 -58 -163 -72 -7 -7 -16 -13 -20 -13 -12 0 -88
-73 -114 -110 -74 -103 -92 -284 -47 -455 6 -22 12 -47 14 -55 15 -75 106
-298 184 -450 24 -47 50 -98 59 -115 27 -55 116 -185 125 -185 5 0 6 8 2 18
-15 34 -54 171 -60 209 -3 21 -8 50 -11 63 -7 35 -7 195 1 244 4 23 8 52 11
66 16 104 87 250 155 319 128 130 291 170 669 163 554 -10 630 -7 760 27 42
11 96 29 120 40 50 22 131 77 142 96 12 20 58 27 90 14 33 -13 51 -62 35 -94
-31 -62 -193 -161 -319 -194 -172 -47 -256 -51 -836 -39 -438 10 -575 -52
-652 -293 -39 -121 -45 -245 -20 -384 20 -107 33 -148 88 -275 34 -79 126
-212 194 -282 164 -167 335 -239 532 -225 134 10 216 52 287 147 65 87 119
249 143 435 15 112 13 109 115 177 183 122 313 242 423 393 141 192 152 204
186 211 44 9 84 -20 89 -63 3 -23 -4 -40 -25 -65 -16 -18 -50 -64 -77 -103
-129 -189 -276 -335 -475 -474 l-75 -52 -12 -72 c-7 -40 -15 -85 -17 -102 -19
-111 -78 -267 -131 -351 -68 -106 -198 -201 -301 -219 -46 -9 -78 -24 -54 -25
8 -1 24 -3 35 -6 92 -19 322 -25 413 -11 61 9 201 88 342 192 191 141 374 331
552 575 81 111 190 278 210 320 7 14 17 32 24 40 7 8 58 104 114 212 l101 197
-23 13 c-13 7 -25 13 -28 13 -17 3 -122 64 -166 96 -61 44 -164 149 -164 165
0 6 -6 17 -14 23 -21 17 -69 114 -98 196 -37 103 -52 196 -52 328 0 64 -1 117
-2 117 -2 0 -9 -6 -16 -13z"/>
<path d="M17755 7064 c-27 -8 -58 -17 -67 -19 -10 -3 -26 -7 -35 -10 -10 -2
-36 -9 -58 -15 -22 -6 -47 -12 -55 -15 -43 -11 -278 -67 -300 -71 -14 -3 -90
-18 -170 -34 -80 -16 -176 -34 -215 -40 -38 -5 -79 -12 -91 -14 -12 -2 -45 -7
-75 -11 -30 -3 -65 -8 -79 -10 -14 -2 -54 -7 -90 -10 -36 -3 -81 -8 -100 -10
-44 -5 -174 -14 -309 -20 -58 -3 -107 -7 -109 -9 -2 -3 27 -14 65 -25 276 -81
575 -84 828 -10 38 12 80 23 94 26 53 9 241 64 321 93 47 17 96 35 110 39 63
20 373 160 388 176 6 6 9 7 -53 -11z"/>
<path d="M14615 6899 c-196 -204 -482 -354 -902 -475 -84 -24 -163 -45 -175
-48 -13 -2 -30 -7 -38 -10 -8 -3 -26 -8 -40 -10 -14 -3 -34 -7 -45 -10 -39
-11 -160 -37 -195 -42 -19 -3 -37 -7 -40 -9 -6 -4 -225 -42 -285 -49 -22 -3
-51 -8 -65 -10 -22 -4 -70 -10 -180 -21 -205 -21 -551 -21 -710 0 -19 2 -57 7
-85 10 -27 3 -97 15 -155 26 -140 28 -139 27 -160 34 -10 3 -28 8 -40 10 -32
6 -250 81 -299 103 l-43 20 -69 -46 c-38 -25 -69 -49 -69 -52 0 -4 -22 -41
-48 -81 -77 -118 -182 -211 -314 -279 -26 -14 -44 -28 -40 -31 11 -10 322
-109 388 -124 11 -2 78 -17 149 -34 72 -16 153 -33 180 -37 28 -4 52 -8 55 -9
3 -1 19 -4 35 -8 17 -3 50 -9 75 -12 25 -3 54 -7 65 -9 11 -2 49 -7 85 -11 36
-4 72 -9 80 -10 8 -2 49 -6 90 -10 41 -3 86 -8 100 -10 22 -4 96 -9 315 -21
176 -9 703 -3 890 10 262 19 397 31 465 41 14 2 50 6 80 10 30 4 66 8 80 10
14 2 50 7 80 10 30 4 57 8 60 10 3 2 34 6 70 10 36 4 67 8 70 10 3 2 24 6 46
9 39 6 64 11 114 21 14 2 41 7 60 10 19 3 42 8 50 10 8 2 31 7 50 10 19 3 55
11 80 16 25 6 56 13 70 15 14 3 52 12 85 21 33 8 70 17 82 19 12 2 33 8 45 13
13 5 25 9 28 9 44 1 429 125 605 194 202 80 422 198 535 286 25 20 47 37 49
39 3 2 6 61 7 131 2 70 5 151 8 180 l6 52 -68 0 c-92 1 -264 8 -342 15 -110
10 -231 23 -275 30 -16 3 -46 7 -65 10 -19 2 -45 7 -56 9 -12 2 -39 7 -60 10
-22 4 -55 11 -74 16 -19 5 -51 12 -70 15 -19 3 -43 8 -52 11 -9 3 -25 7 -35 9
-38 8 -129 34 -154 43 -24 10 -31 5 -84 -49z"/>
<path d="M17570 6664 c-70 -19 -127 -53 -173 -103 -104 -115 -143 -314 -86
-435 65 -139 253 -240 519 -281 187 -28 476 -23 643 11 l28 6 -41 29 c-46 33
-100 112 -122 179 -35 107 -15 234 53 328 17 24 30 45 28 46 -2 2 -44 24 -94
48 -311 155 -582 217 -755 172z"/>
<path d="M3048 6495 c-2 -1 -28 -5 -59 -8 -122 -13 -262 -88 -353 -188 -101
-113 -156 -250 -158 -399 -1 -82 23 -213 43 -235 5 -5 9 -17 9 -27 0 -10 3
-18 8 -18 4 0 16 -19 27 -43 46 -97 202 -220 330 -261 150 -47 311 -33 455 39
36 18 76 43 90 54 63 54 78 69 112 112 86 105 127 236 123 389 -5 189 -84 345
-235 462 -59 46 -109 71 -195 97 -60 17 -187 35 -197 26z"/>
<path d="M23709 6485 c-3 -2 -19 -6 -37 -10 -88 -15 -238 -100 -297 -167 -114
-129 -167 -261 -168 -418 0 -189 91 -374 238 -485 44 -33 74 -49 160 -87 45
-19 155 -35 227 -32 157 5 284 61 399 174 83 82 135 172 164 285 15 58 21 191
10 246 -32 172 -140 328 -284 412 -101 60 -173 80 -297 84 -61 1 -113 1 -115
-2z"/>
<path d="M3848 5445 c-2 -1 -21 -5 -43 -8 -145 -21 -288 -117 -385 -260 -70
-104 -95 -191 -95 -337 1 -172 60 -309 187 -431 113 -108 251 -163 413 -163
128 0 228 30 333 100 51 33 152 130 152 145 0 4 6 14 13 21 32 35 81 152 94
228 3 19 6 76 5 125 -2 271 -194 507 -462 568 -53 13 -202 21 -212 12z"/>
<path d="M22825 5433 c-141 -33 -296 -145 -373 -268 -121 -195 -113 -469 18
-660 87 -127 241 -226 387 -250 48 -7 181 -7 213 0 14 3 36 8 49 11 45 9 140
52 187 84 169 117 270 323 259 530 -13 262 -196 486 -449 549 -89 22 -206 24
-291 4z"/>
<path d="M21950 4499 c-134 -14 -255 -73 -355 -174 -175 -174 -224 -398 -141
-642 75 -223 316 -389 561 -386 81 1 178 17 200 33 6 4 21 10 35 13 33 8 134
74 181 118 83 79 151 200 174 309 16 77 12 222 -8 289 -33 108 -78 183 -157
261 -141 142 -297 198 -490 179z"/>
<path d="M4789 4496 c-2 -2 -20 -6 -39 -9 -95 -14 -217 -77 -296 -154 -144
-140 -206 -322 -178 -529 28 -211 195 -408 404 -477 215 -71 454 -14 615 147
114 114 170 248 174 412 4 172 -50 305 -174 430 -82 82 -152 125 -260 159 -45
15 -235 31 -246 21z"/>
<path d="M5795 3645 c-166 -35 -319 -143 -401 -283 -55 -93 -76 -170 -80 -287
-3 -128 9 -184 63 -295 51 -105 160 -213 265 -263 109 -53 193 -70 303 -64
532 31 764 675 376 1044 -133 127 -345 186 -526 148z"/>
<path d="M20885 3653 c-135 -25 -241 -79 -331 -168 -64 -63 -137 -172 -149
-222 -3 -10 -11 -45 -20 -78 -53 -215 35 -465 215 -607 38 -30 102 -69 120
-73 3 -1 12 -5 21 -9 71 -31 145 -44 246 -41 166 4 296 59 409 173 124 124
181 267 177 447 -6 255 -176 479 -420 555 -63 20 -215 33 -268 23z"/>
<path d="M6970 2920 c-30 -5 -65 -11 -77 -14 -13 -3 -31 -8 -40 -10 -89 -21
-206 -101 -283 -193 -81 -96 -131 -235 -132 -367 -1 -64 2 -95 16 -161 16 -76
85 -198 150 -264 68 -69 74 -75 153 -118 135 -74 320 -90 468 -39 197 68 333
209 393 408 16 53 19 90 17 170 -3 118 -7 138 -40 220 -25 61 -96 166 -137
204 -133 121 -330 187 -488 164z"/>
<path d="M19788 2925 c-2 -2 -22 -5 -45 -8 -66 -10 -151 -43 -220 -88 -253
-165 -344 -491 -213 -764 103 -214 318 -346 555 -340 155 4 280 55 394 161
242 224 259 599 37 841 -91 100 -198 161 -327 186 -65 13 -172 20 -181 12z"/>
<path d="M8115 2309 c-230 -49 -407 -213 -465 -429 -20 -73 -21 -82 -22 -160
-3 -219 116 -424 309 -530 104 -58 178 -75 313 -73 156 2 295 61 406 173 64
65 73 78 112 155 143 283 38 637 -233 790 -60 34 -122 59 -174 71 -44 10 -204
12 -246 3z"/>
<path d="M18598 2315 c-1 -1 -21 -5 -43 -9 -143 -21 -297 -112 -379 -225 -42
-56 -91 -153 -100 -196 -3 -16 -9 -41 -12 -55 -12 -53 -11 -178 2 -240 41
-197 207 -385 389 -442 342 -108 677 66 780 407 19 62 26 211 13 270 -28 121
-56 183 -122 266 -80 99 -194 174 -315 205 -56 14 -204 28 -213 19z"/>
<path d="M9410 1832 c-14 -2 -52 -10 -85 -19 -379 -95 -559 -534 -362 -883 35
-63 132 -164 194 -203 189 -119 428 -124 627 -13 143 80 259 242 291 406 11
58 12 161 3 209 -5 25 -11 57 -14 71 -22 111 -144 272 -260 343 -109 67 -281
106 -394 89z"/>
<path d="M17280 1825 c-231 -51 -413 -228 -466 -452 -13 -57 -13 -210 1 -269
68 -289 325 -484 617 -469 100 5 171 25 257 71 82 45 130 85 186 156 118 149
159 344 111 533 -2 6 -8 23 -14 38 -7 16 -12 32 -12 38 0 9 -55 101 -80 133
-58 76 -158 152 -245 189 -101 43 -248 56 -355 32z"/>
<path d="M10620 1466 c-131 -38 -229 -103 -312 -206 -112 -141 -157 -344 -113
-515 93 -362 476 -554 820 -412 113 47 236 157 292 263 61 114 87 264 68 389
-17 118 -95 261 -189 348 -145 134 -377 189 -566 133z"/>
<path d="M16015 1484 c-54 -9 -158 -46 -208 -76 -157 -92 -251 -228 -293 -419
-6 -30 -5 -164 1 -204 41 -232 217 -422 444 -481 77 -19 207 -22 281 -5 202
47 370 198 441 398 25 67 35 242 18 308 -5 22 -12 49 -14 60 -12 52 -82 171
-133 227 -84 91 -202 161 -309 183 -39 9 -192 14 -228 9z"/>
<path d="M12008 1278 c-18 -4 -46 -10 -63 -13 -56 -10 -192 -84 -248 -135 -97
-90 -164 -208 -193 -342 -9 -42 -6 -192 5 -220 6 -16 8 -28 6 -28 -3 0 6 -29
19 -64 77 -203 249 -348 457 -386 61 -11 154 -14 194 -7 11 3 38 8 60 12 22 4
77 24 122 46 358 171 451 643 184 940 -50 56 -161 139 -184 139 -7 0 -17 4
-22 9 -41 37 -251 68 -337 49z"/>
<path d="M14645 1264 c-200 -49 -365 -201 -435 -404 -31 -88 -36 -239 -11
-330 84 -310 385 -502 694 -444 207 39 392 202 460 405 71 211 12 456 -147
615 -69 68 -163 125 -241 144 -5 1 -21 7 -35 12 -43 17 -219 18 -285 2z"/>
<path d="M13355 1203 c-101 -19 -200 -61 -269 -116 -295 -232 -322 -640 -60
-903 185 -187 456 -228 699 -107 233 115 366 401 308 659 -50 223 -219 396
-440 453 -64 17 -186 24 -238 14z"/>
</g>
</svg>
